<?xml version="1.0" encoding="utf-8"?>
<!-- Generator: Adobe Illustrator 25.0.0, SVG Export Plug-In . SVG Version: 6.00 Build 0)  -->
<svg version="1.1" id="L_x5F_Koesio_x5F_CMJN" xmlns="http://www.w3.org/2000/svg" xmlns:xlink="http://www.w3.org/1999/xlink"
	 x="0px" y="0px" viewBox="0 0 155.5 49.1" style="enable-background:new 0 0 155.5 49.1;" xml:space="preserve">
<style type="text/css">
	.st0{fill:#6E398E;}
</style>
<g>
	<ellipse class="st0" cx="116.1" cy="10.7" rx="4.1" ry="3.9"/>
	<path class="st0" d="M44.2,16.8c-7.8,0-13,4.9-13,12.8c0,7.9,5.2,12.8,13,12.8c7.7,0,13-4.9,13-12.8C57.2,21.7,51.9,16.8,44.2,16.8
		z M44.2,36.1c-3.8,0-5.8-2.1-5.8-6.5c0-4.5,2-6.5,5.8-6.5c3.8,0,5.8,2.1,5.8,6.5S47.9,36.1,44.2,36.1z"/>
	<path class="st0" d="M31,17.4h-7.2c-1.3,5.3-4.7,8.4-9.4,8.9V7.2H7.3v34.7h7.2v-9.2C24,32.1,29.4,25.1,31,17.4z"/>
	<polygon class="st0" points="19.1,36.5 22.9,41.9 31.7,41.9 23.7,30.7 	"/>
	<rect x="112.6" y="17.4" class="st0" width="7.1" height="24.5"/>
	<path class="st0" d="M98.9,26.8c-3.7-0.4-4.7-0.9-4.7-2.4c0-1.5,1.2-2.2,3.6-2.2c2.6,0,3.9,0.9,4.2,2.7h6.7
		c-0.4-5.5-4.9-8.1-11.1-8.1S87.1,19.1,87.1,25c0,6.1,5.4,6.9,10.2,7.5c3.7,0.4,4.8,0.9,4.8,2.4c0,1.5-1.3,2.2-4,2.2
		c-2.7,0-4.1-0.6-4.5-2.6h-7c0.9,5.4,5.3,8,11.4,8c6.9,0,11.2-2.8,11.2-8.5C109.1,28.2,103.7,27.3,98.9,26.8z"/>
	<path class="st0" d="M136.1,16.8c-7.8,0-13,4.9-13,12.8c0,7.9,5.2,12.8,13,12.8c7.7,0,13-4.9,13-12.8
		C149.1,21.7,143.8,16.8,136.1,16.8z M136.1,36.1c-3.8,0-5.8-2.1-5.8-6.5c0-4.5,2-6.5,5.8-6.5c3.8,0,5.8,2.1,5.8,6.5
		S139.8,36.1,136.1,36.1z"/>
	<path class="st0" d="M71.9,16.8c-7.6,0-12.6,4.4-12.6,12.8c0,7.9,5,12.8,12.8,12.8c6.1,0,10.2-2.8,11.8-8h-7.1
		c-0.9,1.5-2.4,2-4.7,2c-3.1,0-5.2-1.4-5.5-4.5h17.8c0.1-0.7,0.1-1.5,0.1-2.4C84.4,21.7,79.4,16.8,71.9,16.8z M66.6,27.3
		c0.1-3.2,2.1-4.6,5.2-4.6c2.9,0,5,1.5,5.1,4.6H66.6z"/>
</g>
</svg>
